<?xml version="1.0" encoding="UTF-8" standalone="no"?>
<!DOCTYPE svg PUBLIC "-//W3C//DTD SVG 1.1//EN" "http://www.w3.org/Graphics/SVG/1.1/DTD/svg11.dtd">
<svg width="100%" height="100%" viewBox="0 0 612 408" version="1.1" xmlns="http://www.w3.org/2000/svg" xmlns:xlink="http://www.w3.org/1999/xlink" xml:space="preserve" xmlns:serif="http://www.serif.com/" style="fill-rule:evenodd;clip-rule:evenodd;stroke-linejoin:round;stroke-miterlimit:2;">
    <g transform="matrix(1,0,0,1,-55.0264,-269.608)">
        <g transform="matrix(10.185,0,0,10.185,286.474,630.266)">
            <path d="M0,-16.361C0.858,-21.393 5.805,-23.912 9.624,-19.984C13.863,-15.623 9.806,-8.038 5.615,-3.665C0.983,-5.98 -0.888,-11.153 0,-16.361M27.33,-25.062C26.648,-16.578 20.552,-2.191 10.408,-2.463C15.824,-9.581 19.056,-21.611 9.643,-25.322C3.441,-27.767 -0.919,-23.79 -2.279,-17.957C-3.791,-11.469 -0.81,-5.994 4.485,-2.567C3.78,-1.931 3.091,-1.401 2.46,-1.016C-9.391,6.216 -18.784,-9.884 -19.279,-19.728C-19.39,-21.934 -22.764,-21.961 -22.724,-19.728C-22.47,-5.499 -8.752,11.406 6.074,1.77C7.016,1.157 7.969,0.328 8.891,-0.657C20.277,1.801 28.557,-15.743 29.334,-25.062C29.441,-26.349 27.432,-26.342 27.33,-25.062" style="fill:rgb(60,60,59);fill-rule:nonzero;"/>
        </g>
        <g transform="matrix(10.185,0,0,10.185,666.014,289.007)">
            <path d="M0,11.111C-0.523,7.186 -1.885,3.025 -3.328,-0.665C-3.644,-1.472 -4.449,-2.137 -5.375,-1.827C-10.119,-0.243 -13.881,3.216 -17.074,6.97C-18.032,8.096 -16.585,9.541 -15.458,8.586C-12.395,5.987 -9.665,3.428 -5.999,1.926C-5.048,5.275 -4.592,8.876 -2.981,11.918C-2.277,13.248 0.215,12.722 0,11.111" style="fill:rgb(60,60,59);fill-rule:nonzero;"/>
        </g>
    </g>
</svg>
